<svg xmlns="http://www.w3.org/2000/svg" viewBox="0 0 1455.66 238.93"><defs><style>.cls-1{fill:#fff;}</style></defs><title>ada-logo_1</title><g id="Layer_2" data-name="Layer 2"><g id="Warstwa_1" data-name="Warstwa 1"><path class="cls-1" d="M124.86.19c29.55-.84,58.1.54,83.71,16.72C226.75,28.39,236.68,45.48,237,66.58c.67,53.23.19,106.48.15,159.72a11.45,11.45,0,0,1-.87,2.58H189.72V184.76c0-10.27.12-20.53,0-30.79-.2-14-7.58-21.37-21.41-21.49-14.36-.13-28.72,0-43.61,0V96.27c14,0,27.71.07,41.4,0,15.88-.1,23.6-8.27,23.65-24.84,0-17.23-7.65-25.54-23.8-25.6-13.44-.05-26.88,0-41.06,0Z"/><path class="cls-1" d="M95.17,238.93c-36.35-7.46-65.61-24.14-87.94-51.78C3,182,.68,173.86.5,167c-.75-27.87,0-55.77-.49-83.65C-.2,72.55,3.48,64.05,10.72,56.65c23-23.52,50.14-39.44,83.74-44.93V56.29c-7.19.93-14.75,1.53-22.14,3-13,2.51-18.33,8-18.81,18.17-.58,12.4,4.38,20.32,16.44,23.88,7.9,2.34,16.25,3.16,24.81,4.73V143.1c-9.35,1.61-18.56,2.49-27.37,4.87-11.64,3.13-14.47,8.59-14.34,22.62.09,10,5.73,15.54,14.65,17.57,8.65,2,17.58,2.74,26.88,4.11a31.79,31.79,0,0,1,.56,4.41C95.19,210.43,95.17,224.18,95.17,238.93Z"/><path class="cls-1" d="M355.07,107.25V137.1h-26c-3.54,0-6,.52-7.52,1.57s-2.2,2.81-2.2,5.3q0,4.22,2.25,5.54c1.51.89,4.58,1.33,9.23,1.33h26.81v38.29H326.31q-22.1,0-33.78-10.55t-11.68-30.49V95.57q0-19.25,11-29.85T323,55.12h34.66V93.6H332.2q-10.32,0-10.31,6.68c0,2.62.82,4.43,2.45,5.45s4.55,1.52,8.74,1.52Z"/><path class="cls-1" d="M377.75,55.12h39.86v79.62q0,9.33,3,12.42t11.83,3.09h2.06v38.88H423.9q-21.79,0-34-12.71t-12.18-35.3Z"/><path class="cls-1" d="M519.42,107.25V137.1h-26q-5.31,0-7.51,1.57c-1.48,1-2.21,2.81-2.21,5.3q0,4.22,2.25,5.54t9.23,1.33H522v38.29H490.66q-22.1,0-33.78-10.55T445.2,148.09V95.57q0-19.25,11.05-29.85t31.07-10.6H522V93.6H496.55q-10.31,0-10.31,6.68c0,2.62.82,4.43,2.45,5.45s4.55,1.52,8.74,1.52Z"/><path class="cls-1" d="M584.71,55.12v134H544.85v-134Zm76.48,0-35.34,60.77L661,189.13H616.23l-30.34-74,34.36-60Z"/><path class="cls-1" d="M732.86,93.6v95.53H693V93.6H662.47V55.12H763.3V93.6Z"/><path class="cls-1" d="M817.89,91.15v98H778v-134h51.15q23.37,0,36.23,11.58,14.33,13,14.33,32.89,0,20.32-17.77,34.26l23,55.28H843.12l-19.34-43.2V111.47h3.14q12.57,0,12.57-10.8,0-9.53-14.53-9.52Z"/><path class="cls-1" d="M961.82,51.78q28.47,0,48.84,20.71T1031,122.07q0,29.37-20.51,49.88t-49.88,20.52q-29.16,0-49.78-20.62t-20.61-49.78q0-29.44,20.76-49.87T961.82,51.78Zm-1.18,39.47a27.88,27.88,0,0,0-20.91,9,31.74,31.74,0,0,0,0,43.59,28.78,28.78,0,0,0,41.82,0,30.43,30.43,0,0,0,8.59-21.85,30.42,30.42,0,0,0-8.59-21.84A27.89,27.89,0,0,0,960.64,91.25Z"/><path class="cls-1" d="M1081.2,116.67v26h-44.86v-26Z"/><path class="cls-1" d="M1143.25,121.88v35.34h-11.48v31.91H1091.9V103.91q0-24.73,13.5-38.44t37.95-13.69q23.57,0,34.85,12.42t11.29,38.34v86.59h-39.86V105.19q0-7.86-1.86-10.9t-6.68-3q-9.33,0-9.32,13.94v16.69Z"/><path class="cls-1" d="M1253.51,93.6v95.53h-39.86v-134h51.93q34.17,0,53.51,15.51,23,18.56,23,50.36,0,30.44-19.64,49.68t-50.56,19.25c-2.43,0-6.38-.14-11.88-.4V150.15h6.38q34.85,0,34.85-29.16,0-27.39-34.26-27.39Z"/><path class="cls-1" d="M1409.42,121.88v35.34h-11.49v31.91h-39.86V103.91q0-24.73,13.5-38.44t38-13.69q23.55,0,34.85,12.42t11.29,38.34v86.59H1415.8V105.19q0-7.86-1.87-10.9c-1.24-2-3.47-3-6.67-3q-9.33,0-9.33,13.94v16.69Z"/></g></g></svg>