<svg xmlns="http://www.w3.org/2000/svg" viewBox="0 0 428.23 102">
    <g fill="white">
        <path d="M55.85,0,41.71,8.11q-10.43,23.43-20.9,47C13.82,70.74,6.86,86.44,0,102l14.05-8Q24.51,70.48,35,47T55.85,0"/>
        <path d="M98.55,102H65.78c4.74-2.68,9.46-5.37,14.2-8.09H96.33l16.33,0Q105.61,98,98.55,102"/>
        <path d="M0,102l14.05-8q11.2,0,22.42,0l22.5,0c-4.72,2.72-9.48,5.4-14.22,8.07H22.29L0,102"/>
        <path d="M54.07,75.49c-1.63-6.12-3.28-12.28-4.9-18.42H64.44c-2-5.51-4-11-6-16.45s-4-11-6-16.51Q60.86,36.17,69.2,48.19T86,72.22H70.25c3.22,7.21,6.47,13.45,9.73,20.68,0,0,21.81,0,32.68,0C103.18,77.22,93.7,62.61,84.23,47s-18-31.29-27.38-47c-7,15.68-41.36,93-41.36,93l43.48,0S55.59,81.2,54.07,75.49Z"/>
        <path d="M418.34,99.9l9.89-.06V98l-7.36.05,0-4.91,6.7,0V91.18l-6.7,0,0-4.35,7.37,0,0-1.88-9.89.06Zm-18.41.11,2.53,0-.08-12.24h.06l8.06,12.19h3.24L413.65,85l-2.53,0,.07,12h-.05l-7.86-12-3.44,0Zm-15.48.09,12.22-.07,0-1.88-9.28,0,9.07-11.14V85.13l-11.77.07v1.88l8.86,0-9.09,11.15Zm-1.71-14.5a10,10,0,0,0-1.95-.49,15,15,0,0,0-2-.13,12.52,12.52,0,0,0-3.73.57,9.15,9.15,0,0,0-3,1.57,7.26,7.26,0,0,0-1.93,2.42,7.16,7.16,0,0,0-.68,3.14,7.55,7.55,0,0,0,.69,3.2,6.84,6.84,0,0,0,1.9,2.44A8.62,8.62,0,0,0,375,99.86a12.62,12.62,0,0,0,3.81.53c.35,0,.76,0,1.21,0s.92-.08,1.41-.15a8.22,8.22,0,0,0,1.4-.36l-.16-2.07a4.05,4.05,0,0,1-.8.31,8.31,8.31,0,0,1-1,.23,9.48,9.48,0,0,1-1.05.15,9,9,0,0,1-1,.06,8,8,0,0,1-2.59-.4,6.43,6.43,0,0,1-2.12-1.17,5.44,5.44,0,0,1-1.44-1.83,5.52,5.52,0,0,1-.54-2.39,5.73,5.73,0,0,1,.47-2.32A5.29,5.29,0,0,1,374,88.55a6.39,6.39,0,0,1,2.13-1.24,8.66,8.66,0,0,1,2.78-.45,8.55,8.55,0,0,1,1.89.2,7.73,7.73,0,0,1,1.75.61ZM358.5,100.25H361L361,94l6.83-8.71-3,0L359.76,92l-5.3-6.65-3,0,7,8.62ZM340.86,87.34h2.43a5.89,5.89,0,0,1,2,.26,2.49,2.49,0,0,1,1.19.75,1.89,1.89,0,0,1,0,2.4,2.9,2.9,0,0,1-1.3.81,6.49,6.49,0,0,1-2.06.3h-2.15Zm-2.45,13h2.53l0-6.62h1.52c.33,0,.64,0,.92,0a3.09,3.09,0,0,1,.77.15,2,2,0,0,1,.67.43,3.51,3.51,0,0,1,.61.84l2.73,5.14H351l-3.38-5.92a4.79,4.79,0,0,0-.52-.73,2.28,2.28,0,0,0-.53-.46,3.46,3.46,0,0,0-.67-.29v0a5.69,5.69,0,0,0,1.85-.62,3.84,3.84,0,0,0,1.29-1.17,2.94,2.94,0,0,0,.48-1.63,3.94,3.94,0,0,0-.39-1.78,3.17,3.17,0,0,0-1-1.17,5.07,5.07,0,0,0-1.53-.67,10.59,10.59,0,0,0-1.87-.3c-.66,0-1.35-.07-2.05-.07l-4.33,0Zm-10.39.06h2.53l-.08-13,5.49,0V85.49l-13.51.08v1.88l5.49,0Zm-20.26.12h2.52l0-7.3,7.91,7.25,3.69,0-9-7.8,8.26-7.09-3.37,0-7.49,6.59,0-6.55-2.53,0Zm-14.07.08,9.89,0V98.7l-7.36,0,0-4.9,6.7,0V91.92l-6.7,0,0-4.35,7.36,0V85.68l-9.89.06Zm-12.8.08,9.92-.06V98.77l-7.39,0-.08-13-2.53,0Zm-13.91.08,9.89-.06V98.86l-7.36,0,0-4.91,6.7,0V92.08l-6.7,0,0-4.36,7.36,0V85.84l-9.89.06Zm-19.1.12,2.53,0,0-6.23,6.83-8.7-3,0-5.1,6.7L243.85,86h-3l7,8.63Zm-17.6.1,9.91-.06V99.07l-7.38.05,0-4.4,4.94-2.48V90.7l-5,2.49,0-7.09-2.53,0,.05,8.32-1.61.82v1.53l1.62-.82Zm-4.59-14.87-2.53,0,.05,8.45a8,8,0,0,1-.2,2,4.17,4.17,0,0,1-.72,1.53,3.13,3.13,0,0,1-1.33,1,5.29,5.29,0,0,1-2.05.37,5.56,5.56,0,0,1-2-.34,3.23,3.23,0,0,1-1.34-1,4.15,4.15,0,0,1-.74-1.52,7.94,7.94,0,0,1-.22-2l-.05-8.45-2.53,0L212,95a7.13,7.13,0,0,0,.83,3.52,5.17,5.17,0,0,0,2.35,2.15,9.73,9.73,0,0,0,7.42-.05A5.14,5.14,0,0,0,225,98.4a7.2,7.2,0,0,0,.79-3.53ZM195.3,101.22l2.53,0-.05-7.3,7.91,7.25,3.7,0-9-7.8,8.26-7.09-3.36,0-7.5,6.6,0-6.55h-2.53Zm-12.07.07,2.53,0,0-6.23,6.83-8.7-3,0-5.09,6.71-5.3-6.65-3,0,6.95,8.62Zm-15.48.09,2.53,0-.08-13,5.49,0V86.44l-13.51.08,0,1.88,5.48,0ZM151.54,88.46H154a6.19,6.19,0,0,1,2,.25,2.53,2.53,0,0,1,1.19.76,1.75,1.75,0,0,1,.41,1.16,1.82,1.82,0,0,1-.45,1.24,2.85,2.85,0,0,1-1.3.81,6.49,6.49,0,0,1-2.06.3h-2.15Zm-2.46,13,2.53,0,0-6.61h1.52c.33,0,.64,0,.92,0a3,3,0,0,1,.77.15,2,2,0,0,1,.67.43,3.51,3.51,0,0,1,.61.84l2.74,5.14,2.88,0-3.37-5.91a5.57,5.57,0,0,0-.53-.73,2.28,2.28,0,0,0-.53-.46,3.21,3.21,0,0,0-.67-.29v0a5.69,5.69,0,0,0,1.85-.62,3.77,3.77,0,0,0,1.29-1.18,2.89,2.89,0,0,0,.48-1.62,3.94,3.94,0,0,0-.39-1.78,3.17,3.17,0,0,0-1-1.17,5.07,5.07,0,0,0-1.53-.67,10.45,10.45,0,0,0-1.87-.3c-.66,0-1.34-.08-2.05-.07l-4.32,0ZM141.29,96l-7,0,3.48-7.4ZM129,101.61l2.65,0,1.77-3.76,8.66,0,1.81,3.74,2.76,0-7.55-14.84h-2.65Z"/>
        <polygon points="386.19 0.84 386.19 77.66 427.53 77.66 427.53 63.4 406.38 63.4 406.38 0.84 386.19 0.84"/>
        <polygon points="333.05 0.84 333.05 77.66 373.99 77.66 373.99 63.4 353.25 63.4 353.25 46.08 371.27 46.08 371.27 31.81 353.25 31.81 353.25 15.1 373.71 15.1 373.71 0.84 333.05 0.84"/>
        <polygon points="271.78 0.84 271.78 15.1 287.64 15.1 287.64 77.66 307.84 77.66 307.84 15.1 323.83 15.1 323.83 0.84 271.78 0.84"/>
        <path d="M226.11,13.37h2.71a19.65,19.65,0,0,1,8.06,1.07,8.69,8.69,0,0,1,4.34,3.48,9.5,9.5,0,0,1,1.29,5,11.55,11.55,0,0,1-1.29,5.65,9.21,9.21,0,0,1-4.16,3.91A17.16,17.16,0,0,1,229.63,34l-3.52-.1Zm0,64.29V42.2h.27l17.75,35.46h21.28L247.66,42.71a27.4,27.4,0,0,0,8.22-5.12,19.19,19.19,0,0,0,4.74-6.76,20.52,20.52,0,0,0,1.54-8,21.26,21.26,0,0,0-1.76-8.92,17,17,0,0,0-4.7-6.11A23.56,23.56,0,0,0,249,4a42.55,42.55,0,0,0-7.75-2.09A71.26,71.26,0,0,0,233.38,1c-2.6-.14-5-.19-7.14-.17H205.91V77.66Z"/>
        <polygon points="151.96 0.84 128.24 77.66 148.3 77.66 148.99 75.25 156.9 41.28 161.14 20.61 161.67 20.61 166.18 41.28 176.24 77.66 197.78 77.66 173.24 0.84 151.96 0.84"/>
    </g>
</svg>