<svg xmlns="http://www.w3.org/2000/svg" viewBox="0 0 28.29 28.29">
    <g fill="white">
        <path d="M9.05,27.76a1.26,1.26,0,0,1-.62-.17,1.24,1.24,0,0,1-.57-1.48l2.9-8.7H6.46a1.24,1.24,0,0,1-1.12-.7,1.26,1.26,0,0,1,.13-1.32L16.68,1A1.26,1.26,0,0,1,18.22.66a1.25,1.25,0,0,1,.66,1.43L16.69,10.6h5a1.25,1.25,0,0,1,.95,2.07L10,27.32A1.22,1.22,0,0,1,9.05,27.76ZM9,14.91h3.47a1.25,1.25,0,0,1,1.19,1.65L12.23,20.9,19,13.1H15.08a1.24,1.24,0,0,1-1.21-1.56L15,7.28Z"/>
        <path d="M20.73,1.66a3.4,3.4,0,0,1-.09.83l-.58,2.25a11.12,11.12,0,0,1-5.92,20.55h0L11.72,28a12.9,12.9,0,0,0,2.42.25A14.12,14.12,0,0,0,20.73,1.66Z"/>
        <path d="M6.27,25.56l.92-2.75A11.09,11.09,0,0,1,12.91,3.1l2.36-3C14.9,0,14.52,0,14.14,0A14.13,14.13,0,0,0,6.2,25.82,2,2,0,0,1,6.27,25.56Z"/>
    </g>
</svg>