<svg xmlns="http://www.w3.org/2000/svg" viewBox="0 0 88.29 28.29">
    <g fill="white">
        <path d="M9.05,27.76a1.26,1.26,0,0,1-.62-.17,1.24,1.24,0,0,1-.57-1.48l2.9-8.7H6.46a1.24,1.24,0,0,1-1.12-.7,1.26,1.26,0,0,1,.13-1.32L16.68,1A1.26,1.26,0,0,1,18.22.66a1.25,1.25,0,0,1,.66,1.43L16.69,10.6h5a1.25,1.25,0,0,1,.95,2.07L10,27.32A1.22,1.22,0,0,1,9.05,27.76ZM9,14.91h3.47a1.25,1.25,0,0,1,1.19,1.65L12.23,20.9,19,13.1H15.08a1.24,1.24,0,0,1-1.21-1.56L15,7.28Z"/>
        <path d="M20.73,1.66a3.4,3.4,0,0,1-.09.83l-.58,2.25a11.12,11.12,0,0,1-5.92,20.55h0L11.72,28a12.9,12.9,0,0,0,2.42.25A14.12,14.12,0,0,0,20.73,1.66Z"/>
        <path d="M6.27,25.56l.92-2.75A11.09,11.09,0,0,1,12.91,3.1l2.36-3C14.9,0,14.52,0,14.14,0A14.13,14.13,0,0,0,6.2,25.82,2,2,0,0,1,6.27,25.56Z"/>
        <path d="M36.88,19.59,40.4,7.29H43l3.54,12.3v1.58H43.81V20l-.45-1.58H40.1L39.65,20v1.19H36.88Zm5.68-4-.83-2.88-.82,2.88Z"/>
        <path d="M57.69,10.07v4.17a2.66,2.66,0,0,1-.44,1.52,2.74,2.74,0,0,1-1.2,1l1.64,3.4v1H54.92v-.38L53.12,17h-1v4.16H49.37V7.29h5.55A2.76,2.76,0,0,1,56,7.51a2.71,2.71,0,0,1,.89.59,3,3,0,0,1,.6.89A2.58,2.58,0,0,1,57.69,10.07Zm-2.77,0H52.15v4.17h2.77Z"/>
        <path d="M60.48,10.07V7.29h8.33v2.78H66v11.1H63.25V10.07Z"/>
        <path d="M71.6,7.29h6.93v2.78H74.37v2.79h3.48v2.77H74.37V18.4h4.16v2.77H71.6Z"/>
        <path d="M84.13,18.4h4.16v2.77H81.36V7.29h2.77Z"/>
    </g>
</svg>