<svg xmlns="http://www.w3.org/2000/svg" viewBox="0 0 19.5 23.25">
  <path
    fill="fill-base"
    d="M9.75,23.25a.49.49,0,0,1-.32-.12C9,22.8,0,15,0,9.75a9.75,9.75,0,0,1,19.5,0c0,5.28-9,13.05-9.42,13.38a.52.52,0,0,1-.33.12Z"
  />
  <path
    fill="white"
    d="M7.7,16.62a.51.51,0,0,1-.25-.06A.52.52,0,0,1,7.21,16L8.4,12.4H6.64a.52.52,0,0,1-.46-.29.53.53,0,0,1,.06-.54L10.82,5.7a.51.51,0,0,1,.89.44l-.89,3.48h2a.51.51,0,0,1,.47.3.51.51,0,0,1-.08.54l-5.17,6A.52.52,0,0,1,7.7,16.62Zm0-5.24H9.11a.52.52,0,0,1,.41.21.5.5,0,0,1,.07.46L9,13.82l2.75-3.18H10.16A.51.51,0,0,1,9.67,10l.44-1.74Z"
  />
</svg>
