<svg xmlns="http://www.w3.org/2000/svg" viewBox="0 0 10.46 18.35">
  <path
    fill-rule="nonzero"
    d="M1.28,18.35A1.27,1.27,0,0,1,.38,18h0A1.25,1.25,0,0,1,0,17.07a1.27,1.27,0,0,1,.38-.91l7-7-7-7A1.28,1.28,0,0,1,.38.38a1.27,1.27,0,0,1,1.81,0l7.9,7.89a1.28,1.28,0,0,1,0,1.81L2.19,18A1.28,1.28,0,0,1,1.28,18.35ZM1.28,1a.32.32,0,0,0-.2.08.28.28,0,0,0,0,.4l7.7,7.7-7.7,7.69a.32.32,0,0,0-.08.2.28.28,0,0,0,.08.2h0a.28.28,0,0,0,.4,0l7.9-7.89a.28.28,0,0,0,0-.4l-7.9-7.9A.28.28,0,0,0,1.28,1Z"
  />
</svg>
