<svg xmlns="http://www.w3.org/2000/svg" viewBox="0 0 74.07 116.77">
    <g>
        <path d="M37,0A37,37,0,0,0,5.78,56.91a4.33,4.33,0,0,0,.75,1.14C7,58.5,16.7,69.28,14.42,88.14a4.1,4.1,0,0,0,4.07,4.59H55.26a4.1,4.1,0,0,0,4.07-4.59C57.66,74.38,62.6,66,65.56,61l.88-1.51A36.68,36.68,0,0,0,74.07,37,37.08,37.08,0,0,0,37,0Zm13.8,84.53H44.25a227.59,227.59,0,0,1,8.84-45.9h0v0a4.08,4.08,0,0,0-.22-3l0-.07v0a3.76,3.76,0,0,0-.3-.47,1.88,1.88,0,0,0-.12-.18,4.27,4.27,0,0,0-.41-.44s-.09-.1-.14-.14a3.83,3.83,0,0,0-.46-.33,2.26,2.26,0,0,0-.2-.13,3.08,3.08,0,0,0-.52-.24l-.22-.09h0a4.21,4.21,0,0,0-.48-.12l-.12,0a4.72,4.72,0,0,0-.64,0,4.1,4.1,0,0,0-2.84,1.14l-.06,0-.29.34a1.58,1.58,0,0,0-.12.15c-.07.09-.13.2-.19.29s-.11.17-.15.26a2,2,0,0,0-.11.26,3.45,3.45,0,0,0-.14.34v0c-.56,1.74-3.69,4.18-8.9,4.18s-8.31-2.43-8.9-4.21a4.09,4.09,0,0,0-3.9-2.83,4.1,4.1,0,0,0-3.88,5.41,229.22,229.22,0,0,1,8.83,45.87H22.92c.67-17.42-7.25-28.36-9.84-31.45L13,53A28.83,28.83,0,1,1,65.87,37a28.57,28.57,0,0,1-6.08,17.7,3.93,3.93,0,0,0-.35.52c-.25.46-.55,1-.86,1.49l-.08.13C55.62,61.73,50.33,70.66,50.83,84.53ZM30.73,47.78a22.51,22.51,0,0,0,5.66.71,22.24,22.24,0,0,0,5.67-.72,244.57,244.57,0,0,0-5.67,32.65A241.37,241.37,0,0,0,30.73,47.78Z"/>
        <path d="M54.64,96.57h-35a4.1,4.1,0,0,0,0,8.2h35a4.1,4.1,0,0,0,0-8.2Z"/>
        <path d="M49.39,108.57H24.89a4.1,4.1,0,1,0,0,8.2h24.5a4.1,4.1,0,0,0,0-8.2Z"/>
    </g>
</svg>