<svg xmlns="http://www.w3.org/2000/svg" viewBox="0 0 3.58 3.58"><title>clock</title><g id="Layer_2" data-name="Layer 2"><g id="Layer_1-2" data-name="Layer 1"><path d="M1.79,0A1.78,1.78,0,0,1,3.05.52h0a1.8,1.8,0,0,1,.52,1.26,1.75,1.75,0,0,1-.53,1.26h0a1.79,1.79,0,0,1-2.53,0h0A1.78,1.78,0,0,1,0,1.79,1.83,1.83,0,0,1,.52.52h0A1.78,1.78,0,0,1,1.79,0Zm.78,1.65H1.93V.56A.14.14,0,0,0,1.79.42a.14.14,0,0,0-.14.14V1.79h0a.14.14,0,0,0,.14.14h.78a.14.14,0,0,0,.14-.14.14.14,0,0,0-.14-.14ZM2.86.72h0A1.47,1.47,0,0,0,1.79.28,1.47,1.47,0,0,0,.72.72h0A1.47,1.47,0,0,0,.28,1.79,1.49,1.49,0,0,0,.72,2.86h0a1.52,1.52,0,0,0,2.13,0h0a1.53,1.53,0,0,0,0-2.14Z"/></g></g></svg>