<svg xmlns="http://www.w3.org/2000/svg" viewBox="0 0 21.88 15.6">
    <g fill="white">
        <path d="M20,15.6H1.86A1.86,1.86,0,0,1,0,13.74V1.86A1.86,1.86,0,0,1,1.86,0H20a1.86,1.86,0,0,1,1.86,1.86V13.74A1.86,1.86,0,0,1,20,15.6ZM1.86,1A.86.86,0,0,0,1,1.86V13.74a.87.87,0,0,0,.86.86H20a.86.86,0,0,0,.86-.86V1.86A.85.85,0,0,0,20,1Z"/>
        <path d="M20,15.6H1.86A1.87,1.87,0,0,1,.12,14.4a.5.5,0,0,1,.14-.55L7.35,7.53A.5.5,0,0,1,8,8.27L1.23,14.32a.88.88,0,0,0,.63.28H20a.88.88,0,0,0,.63-.28L13.79,8.2a.5.5,0,0,1,.66-.74l7.17,6.39a.5.5,0,0,1,.14.55A1.87,1.87,0,0,1,20,15.6Z"/>
        <path d="M10.94,11.11a.51.51,0,0,1-.33-.13L.26,1.75A.5.5,0,0,1,.12,1.2,1.87,1.87,0,0,1,1.86,0H20a1.87,1.87,0,0,1,1.74,1.2.5.5,0,0,1-.14.55L11.27,11a.51.51,0,0,1-.33.13ZM1.23,1.28l9.71,8.66,9.71-8.66A.84.84,0,0,0,20,1H1.86a.84.84,0,0,0-.63.28Z"/>
    </g>
</svg>