<svg xmlns="http://www.w3.org/2000/svg" viewBox="0 0 22 22.01">
    <path fill="white" d="M16.05,6.86H19.3a.57.57,0,0,1,.58.51v.36a.54.54,0,0,1-.51.51l-4.93,0h-.26a.48.48,0,0,1-.35-.14.49.49,0,0,1-.12-.36l0-.25h0v-5a.48.48,0,0,1,.51-.45h.36a.5.5,0,0,1,.49.51l0,3.33L20.7.28a.69.69,0,1,1,1,1Zm.27,6.58a1.29,1.29,0,0,1,.69.18c.45.27,4.13,2.72,4.46,3a1.58,1.58,0,0,1,.17,2.21S19.31,22,18,22h0c-3.75-.12-8.15-3.76-11.18-6.79S.12,7.79,0,4C0,2.71,3.19.37,3.22.34A1.91,1.91,0,0,1,4.3,0,1.37,1.37,0,0,1,5.42.5C5.67.85,8.11,4.55,8.37,5a1.79,1.79,0,0,1-.1,1.78c-.19.35-.8,1.42-1.09,1.95A25.7,25.7,0,0,0,10,12a26.16,26.16,0,0,0,3.26,2.87l1.94-1.1A2.4,2.4,0,0,1,16.32,13.44Zm-3.1,3-.71-.5a27.29,27.29,0,0,1-3.44-3,28.22,28.22,0,0,1-3-3.44l-.5-.72L6,8c.56-1,.95-1.67,1.07-1.91a1,1,0,0,0,.14-.44c-.37-.59-2.45-3.73-2.83-4.29H4.3a.57.57,0,0,0-.3.1,9.89,9.89,0,0,0-2.63,2.6c.12,2.56,2.39,6.17,6.38,10.18s7.61,6.26,10.18,6.38A10,10,0,0,0,20.52,18a.46.46,0,0,0,.11-.33c-.57-.39-3.77-2.52-4.3-2.85h0a1,1,0,0,0-.44.13L14,16Z"/>
</svg>