<svg xmlns="http://www.w3.org/2000/svg" viewBox="0 0 31.58 36.11">
    <g>
        <path d="M26.57,12.1H16.1a1.11,1.11,0,0,0-.77.3l0,0a1.08,1.08,0,0,0-.35.8v8.16a1.16,1.16,0,0,0,.33.8h0v0a1.12,1.12,0,0,0,.81.32H27.63a1.12,1.12,0,0,0,.82-.34h0a1.14,1.14,0,0,0,.35-.81V13.25a1.2,1.2,0,0,0-1.17-1.15ZM18.32,24.22h0v2.17a.15.15,0,0,0,0,.09.08.08,0,0,0,.08,0h6.85a.07.07,0,0,0,.07,0,.1.1,0,0,0,0-.08V24.22ZM25.15,9.33h0V1.38a1.39,1.39,0,0,1,2.78,0v8a3.9,3.9,0,0,1,2.48,1.13,4,4,0,0,1,1.17,2.78v8.16a4,4,0,0,1-3.39,3.89v1.09a2.9,2.9,0,0,1-2.9,2.9H23.14a8.36,8.36,0,0,1-2.29,4.41h0a8.23,8.23,0,0,1-14-5.81V12.17A5.46,5.46,0,0,0,5.23,8.32l-.05-.06A5.47,5.47,0,0,0,1.4,6.73,1.39,1.39,0,1,1,1.4,4,8.19,8.19,0,0,1,7.12,6.29l.08.07a8.23,8.23,0,0,1,2.41,5.81V27.9a5.43,5.43,0,0,0,9.27,3.84h0a5.51,5.51,0,0,0,1.41-2.45H18.44a2.86,2.86,0,0,1-2-.85h0l0,0a3,3,0,0,1-.83-2V25.3a3.88,3.88,0,0,1-2.22-1.12h0a3.93,3.93,0,0,1-1.16-2.77V13.25a4,4,0,0,1,1.15-2.78l.11-.09a3.93,3.93,0,0,1,2.38-1v-8a1.39,1.39,0,0,1,2.78,0v8ZM13.42,10.38Z"/>
    </g>
</svg>