<svg xmlns="http://www.w3.org/2000/svg" viewBox="0 0 48 64">
  <defs>
    <style>
      #whyus-icon-bulb .cls-1 {
        fill: #e8edf9;
      }
      #whyus-icon-bulb .cls-2 {
        fill: none;
        stroke: #1b4fd2;
        stroke-miterlimit: 10;
        stroke-width: 2px;
      }
    </style>
  </defs>

  <g id="whyus-icon-bulb">
    <circle
      class="cls-1"
      cx="24.07"
      cy="23.93"
      r="13.78"
      transform="translate(-7.33 11.03) rotate(-22.5)"
    />
    <path
      class="cls-2"
      d="M24,5a19,19,0,0,0-7,36.65V60H31V41.65A19,19,0,0,0,24,5Z"
    />
    <polyline class="cls-2" points="27 60 26 63 22 63 21 60" />
    <line class="cls-2" x1="34" y1="46" x2="14" y2="50" />
    <line class="cls-2" x1="34" y1="50" x2="14" y2="54" />
    <line class="cls-2" x1="34" y1="54" x2="14" y2="58" />
    <line class="cls-2" x1="21" y1="49" x2="21" y2="43" />
    <line class="cls-2" x1="27" y1="43" x2="27" y2="48" />
    <line class="cls-2" x1="11" y1="4" x2="13" y2="4" />
    <line class="cls-2" x1="23" y1="1" x2="25" y2="1" />
    <line class="cls-2" x1="3" y1="12" x2="5" y2="12" />
    <line class="cls-2" y1="24" x2="2" y2="24" />
    <line class="cls-2" x1="3" y1="36" x2="5" y2="36" />
    <line class="cls-2" x1="43" y1="36" x2="45" y2="36" />
    <line class="cls-2" x1="46" y1="24" x2="48" y2="24" />
    <line class="cls-2" x1="43" y1="12" x2="45" y2="12" />
    <line class="cls-2" x1="35" y1="4" x2="37" y2="4" />
    <line class="cls-2" x1="11" y1="44" x2="13" y2="44" />
    <line class="cls-2" x1="35" y1="44" x2="37" y2="44" />
    <circle class="cls-2" cx="24" cy="24" r="14" />
    <line class="cls-2" x1="22" y1="28" x2="22" y2="31" />
    <line class="cls-2" x1="20" y1="25" x2="20" y2="28" />
    <line class="cls-2" x1="26" y1="28" x2="26" y2="31" />
    <line class="cls-2" x1="28" y1="25" x2="28" y2="28" />
    <line class="cls-2" x1="24" y1="25" x2="24" y2="28" />
  </g>
</svg>
