<svg xmlns="http://www.w3.org/2000/svg" viewBox="0 0 62 56">
  <defs>
    <style>
      #whyus-icon-home .cls-2,
      #whyus-icon-home .cls-3 {
        fill: none;
        stroke-width: 2px;
      }
      #whyus-icon-home .cls-2 {
        stroke-miterlimit: 10;
      }
      #whyus-icon-home .cls-3 {
        stroke-linejoin: round;
      }
    </style>
  </defs>
  <g id="whyus-icon-home">
    <path
      class="fill-100"
      d="M44,35,31,23,17.62,34.46,18,51h9V39h8v9l1.25,3H41l1-2.64L44.33,47ZM31,35a3,3,0,1,1,3-3A3,3,0,0,1,31,35Z"
    />
    <rect class="cls-2 stroke-base" x="1" y="9" width="60" height="46" />
    <rect class="cls-2 stroke-base" x="1" y="1" width="60" height="8" />
    <line class="cls-2 stroke-base" x1="4" y1="5" x2="6" y2="5" />
    <line class="cls-2 stroke-base" x1="8" y1="5" x2="10" y2="5" />
    <line class="cls-2 stroke-base" x1="12" y1="5" x2="14" y2="5" />
    <line class="cls-2 stroke-base" x1="16" y1="5" x2="58" y2="5" />
    <polyline class="cls-2 stroke-base" points="5 46 5 13 57 13 57 46" />
    <path
      class="cls-3 stroke-base"
      d="M35,51h6a4,4,0,0,1,7.2-2.38A3,3,0,0,1,53,51h5"
    />
    <line class="cls-2 stroke-base" x1="44" y1="44" x2="44" y2="34" />
    <line class="cls-2 stroke-base" x1="18" y1="34" x2="18" y2="51" />
    <polygon
      class="cls-2 stroke-base"
      points="31 17 15 31 15 35 17 35 31 23 45 35 47 35 47 31 31 17"
    />
    <polyline class="cls-2 stroke-base" points="35 52 35 39 27 39 27 51 4 51" />
    <polyline class="cls-2 stroke-base" points="42 27 42 19 38 19 38 23" />
    <line class="cls-2 stroke-base" x1="32" y1="45" x2="35" y2="45" />
    <circle class="cls-2 stroke-base" cx="31" cy="32" r="3" />
    <line class="cls-3 stroke-base" x1="10" y1="46" x2="10" y2="51" />
    <line class="cls-3 stroke-base" x1="14" y1="48" x2="14" y2="51" />
  </g>
</svg>
